<?xml version="1.0" encoding="utf-8"?>
<!-- Generator: Adobe Illustrator 20.1.0, SVG Export Plug-In . SVG Version: 6.00 Build 0)  -->
<svg version="1.2" baseProfile="tiny" id="Layer_1" xmlns="http://www.w3.org/2000/svg" xmlns:xlink="http://www.w3.org/1999/xlink"
	 x="0px" y="0px" width="43.1px" height="42.5px" viewBox="0 0 43.1 42.5" xml:space="preserve">
<g>
	<path fill="#FEE56D" d="M42.9,21.6c0.3-0.2,0.3-0.6,0-0.8l-3.7-2.4C39,18.3,39,18,39.1,17.8l2.6-3.5c0.2-0.3,0.1-0.6-0.3-0.7
		l-4.3-1c-0.3-0.1-0.4-0.3-0.3-0.6l1.3-4.2c0.1-0.3-0.2-0.6-0.5-0.6l-4.4,0.5c-0.3,0-0.5-0.2-0.5-0.4l-0.2-4.4
		c0-0.3-0.4-0.5-0.7-0.4l-3.9,2c-0.2,0.1-0.5,0-0.6-0.2l-1.7-4c-0.1-0.3-0.5-0.4-0.7-0.1l-3,3.2c-0.2,0.2-0.5,0.2-0.7,0l-3-3.2
		C18-0.1,17.6,0,17.5,0.3l-1.7,4c-0.1,0.2-0.4,0.3-0.6,0.2l-3.9-2c-0.3-0.1-0.6,0.1-0.7,0.4l-0.2,4.4c0,0.3-0.2,0.5-0.5,0.4L5.4,7.2
		C5.1,7.2,4.9,7.5,5,7.8L6.2,12c0.1,0.2-0.1,0.5-0.3,0.6l-4.3,1c-0.3,0.1-0.5,0.4-0.3,0.7L4,17.8c0.2,0.2,0.1,0.5-0.1,0.6l-3.7,2.4
		c-0.3,0.2-0.3,0.6,0,0.8L3.9,24c0.2,0.1,0.3,0.4,0.1,0.6l-2.6,3.5c-0.2,0.3-0.1,0.6,0.3,0.7l4.3,1c0.3,0.1,0.4,0.3,0.3,0.6L5,34.7
		c-0.1,0.3,0.2,0.6,0.5,0.6l4.4-0.5c0.3,0,0.5,0.2,0.5,0.4l0.2,4.4c0,0.3,0.4,0.5,0.7,0.4l3.9-2c0.2-0.1,0.5,0,0.6,0.2l1.7,4
		c0.1,0.3,0.5,0.4,0.7,0.1l3-3.2c0.2-0.2,0.5-0.2,0.7,0l3,3.2c0.2,0.2,0.6,0.2,0.7-0.1l1.7-4c0.1-0.2,0.4-0.3,0.6-0.2l3.9,2
		c0.3,0.1,0.6-0.1,0.7-0.4l0.2-4.4c0-0.3,0.2-0.5,0.5-0.4l4.4,0.5c0.3,0,0.6-0.3,0.5-0.6l-1.3-4.2c-0.1-0.2,0.1-0.5,0.3-0.6l4.3-1
		c0.3-0.1,0.5-0.4,0.3-0.7l-2.6-3.5C39,24.5,39,24.2,39.2,24L42.9,21.6z M21.6,36.6c-8.5,0-15.4-6.9-15.4-15.4S13.1,5.8,21.6,5.8
		s15.4,6.9,15.4,15.4S30.1,36.6,21.6,36.6z"/>
	<path fill="#FEE56D" d="M21.6,7.8c-7.4,0-13.4,6-13.4,13.4s6,13.4,13.4,13.4s13.4-6,13.4-13.4S28.9,7.8,21.6,7.8z"/>
</g>
</svg>
