<?xml version="1.0" encoding="utf-8"?>
<!-- Generator: Adobe Illustrator 20.1.0, SVG Export Plug-In . SVG Version: 6.00 Build 0)  -->
<svg version="1.2" baseProfile="tiny" id="Layer_2" xmlns="http://www.w3.org/2000/svg" xmlns:xlink="http://www.w3.org/1999/xlink"
	 x="0px" y="0px" width="300px" height="173.8px" viewBox="0 0 300 173.8" xml:space="preserve">
<g>
	<path fill="#FEE56D" d="M291,48.6c0.5-0.4,0.5-1.2,0-1.5l-7.4-4.9c-0.4-0.3-0.5-0.9-0.2-1.3l5.3-7.1c0.4-0.5,0.1-1.3-0.5-1.4
		l-8.6-2c-0.5-0.1-0.8-0.6-0.7-1.1l2.6-8.5c0.2-0.6-0.3-1.2-1-1.2l-8.8,1c-0.5,0.1-1-0.3-1-0.9l-0.5-8.9c0-0.7-0.7-1.1-1.3-0.8
		l-7.9,4c-0.5,0.2-1,0-1.2-0.5l-3.5-8.2c-0.3-0.6-1-0.7-1.5-0.3l-6.1,6.5c-0.4,0.4-1,0.4-1.3,0L241.3,5c-0.4-0.5-1.2-0.3-1.5,0.3
		l-3.5,8.2c-0.2,0.5-0.8,0.7-1.2,0.5l-7.9-4c-0.6-0.3-1.3,0.1-1.3,0.8l-0.5,8.9c0,0.5-0.5,0.9-1,0.9l-8.8-1c-0.7-0.1-1.2,0.5-1,1.2
		l2.6,8.5c0.2,0.5-0.2,1-0.7,1.1l-8.6,2c-0.6,0.1-0.9,0.9-0.5,1.4l5.3,7.1c0.3,0.4,0.2,1-0.2,1.3l-7.4,4.9c-0.5,0.4-0.5,1.2,0,1.5
		l7.4,4.9c0.4,0.3,0.5,0.9,0.2,1.3l-5.3,7.1c-0.4,0.5-0.1,1.3,0.5,1.4l8.6,2c0.5,0.1,0.8,0.6,0.7,1.1l-2.6,8.5
		c-0.2,0.6,0.3,1.2,1,1.2l8.8-1c0.5-0.1,1,0.3,1,0.9l0.5,8.9c0,0.7,0.7,1.1,1.3,0.8l7.9-4c0.5-0.2,1,0,1.2,0.5l3.5,8.2
		c0.3,0.6,1,0.7,1.5,0.3l6.1-6.5c0.4-0.4,1-0.4,1.3,0l6.1,6.5c0.4,0.5,1.2,0.3,1.5-0.3l3.5-8.2c0.2-0.5,0.8-0.7,1.2-0.5l7.9,4
		c0.6,0.3,1.3-0.1,1.3-0.8l0.5-8.9c0-0.5,0.5-0.9,1-0.9l8.8,1c0.7,0.1,1.2-0.5,1-1.2l-2.6-8.5c-0.2-0.5,0.2-1,0.7-1.1l8.6-2
		c0.6-0.1,0.9-0.9,0.5-1.4l-5.3-7.1c-0.3-0.4-0.2-1,0.2-1.3L291,48.6z M247.8,79c-17.2,0-31.1-13.9-31.1-31.1s13.9-31.1,31.1-31.1
		S279,30.7,279,47.9S265,79,247.8,79z"/>
	<path fill="#FEE56D" d="M247.8,20.8c-14.9,0-27.1,12.1-27.1,27.1S232.8,75,247.8,75c14.9,0,27.1-12.1,27.1-27.1
		S262.8,20.8,247.8,20.8z"/>
</g>
<g>
	<circle fill="#F7FBF5" cx="219.5" cy="140.2" r="8.1"/>
	<circle fill="#F7FBF5" cx="234" cy="133" r="15.3"/>
	
		<ellipse transform="matrix(8.549613e-03 -1 1 8.549613e-03 142.3383 417.6262)" fill="#F7FBF5" cx="281.8" cy="137" rx="11.3" ry="11.3"/>
	
		<ellipse transform="matrix(8.549613e-03 -1 1 8.549613e-03 140.0473 396.1808)" fill="#F7FBF5" cx="269.8" cy="127.5" rx="13.1" ry="13.1"/>
	<circle fill="#F7FBF5" cx="252.8" cy="125.8" r="13.9"/>
	<rect x="221.4" y="134.8" fill="#F7FBF5" width="58" height="13.4"/>
</g>
<g>
	<circle fill="#F7FBF5" cx="47.6" cy="57.6" r="10.6"/>
	<circle fill="#F7FBF5" cx="100" cy="54.4" r="13.8"/>
	<circle fill="#F7FBF5" cx="87.8" cy="45.6" r="8.8"/>
	<circle fill="#F7FBF5" cx="67.6" cy="47.7" r="16.4"/>
	<rect x="46.2" y="47.7" fill="#F7FBF5" width="53.7" height="20.4"/>
</g>
<rect x="116.1" y="100.2" fill="#F7FBF5" width="70.5" height="46.5"/>
<circle fill="#F7FBF5" cx="151.4" cy="100.3" r="35.2"/>
<path fill="#F7FBF5" d="M116.1,146.7c0,0,0.3,7.1,7.2,7.1c6.9,0,6.9-7.1,13.8-7.1s6.9,7.1,13.8,7.1c6.9,0,6.9-7.1,13.8-7.1
	c6.9,0,6.9,7.1,13.8,7.1s7.9-7.1,7.9-7.1"/>
<g id="Mouth">
	<g>
		<path fill="#0B2638" d="M151.2,107.3c-4.4,0-7.2-1.9-8.8-3.4c-2.5-2.5-3.4-5.6-3.3-7.5c0-1.7,2.4-2.4,4.3-2.8
			c2.2-0.5,5-0.7,7.8-0.7c1.2,0,12.1,0.1,12.1,3.5c0,1.9-0.9,5-3.3,7.5C158.4,105.5,155.6,107.3,151.2,107.3z"/>
		<path fill="#0B2638" d="M151.2,93.8c5.6,0,11.1,1,11.1,2.5c0,3.6-3.2,10-11.1,10s-11.1-6.4-11.1-10
			C140.1,94.9,145.6,93.8,151.2,93.8 M151.2,91.8c-11.4,0-13.1,2.8-13.1,4.5c0,2.2,1,5.5,3.6,8.2c1.7,1.7,4.7,3.7,9.5,3.7
			s7.8-2,9.5-3.7c2.7-2.7,3.6-6,3.6-8.2C164.3,94.7,162.6,91.8,151.2,91.8L151.2,91.8z"/>
	</g>
	<g>
		<path fill="#F26B6C" d="M150.8,101.6c-5.7,0-6.9,2.3-6.9,2.3c1.8,1.5,4.2,2.5,7.3,2.5c2.9,0,5.2-0.9,6.9-2.1
			C158.2,104.2,156.5,101.6,150.8,101.6z"/>
	</g>
</g>
<g id="Eye_1_">
	<circle fill="#0B2638" cx="174" cy="98.7" r="2.8"/>
	<path fill="none" stroke="#F7FBF5" stroke-linecap="round" stroke-miterlimit="10" d="M174.4,97.6c0.4,0,0.7,0.4,0.7,0.7"/>
</g>
<g id="Eye">
	<circle fill="#0B2638" cx="128.4" cy="98.7" r="2.8"/>
	<path fill="none" stroke="#F7FBF5" stroke-linecap="round" stroke-miterlimit="10" d="M128.8,97.6c0.4,0,0.7,0.4,0.7,0.7"/>
</g>
</svg>
