<?xml version="1.0" encoding="utf-8"?>
<!-- Generator: Adobe Illustrator 20.1.0, SVG Export Plug-In . SVG Version: 6.00 Build 0)  -->
<svg version="1.2" baseProfile="tiny" id="Layer_2" xmlns="http://www.w3.org/2000/svg" xmlns:xlink="http://www.w3.org/1999/xlink"
	 x="0px" y="0px" width="300px" height="173.8px" viewBox="0 0 300 173.8" xml:space="preserve">
<rect x="116.1" y="100.2" fill="#F7FBF5" width="70.5" height="46.5"/>
<circle fill="#F7FBF5" cx="151.4" cy="100.3" r="35.2"/>
<path fill="#F7FBF5" d="M116.1,146.7c0,0,0.3,7.1,7.2,7.1c6.9,0,6.9-7.1,13.8-7.1s6.9,7.1,13.8,7.1c6.9,0,6.9-7.1,13.8-7.1
	c6.9,0,6.9,7.1,13.8,7.1s7.9-7.1,7.9-7.1"/>
<g id="Mouth">
	<g>
		<path fill="#0B2638" d="M151.2,107.3c-4.4,0-7.2-1.9-8.8-3.4c-2.5-2.5-3.4-5.6-3.3-7.5c0-1.7,2.4-2.4,4.3-2.8
			c2.2-0.5,5-0.7,7.8-0.7c1.2,0,12.1,0.1,12.1,3.5c0,1.9-0.9,5-3.3,7.5C158.4,105.5,155.6,107.3,151.2,107.3z"/>
		<path fill="#0B2638" d="M151.2,93.8c5.6,0,11.1,1,11.1,2.5c0,3.6-3.2,10-11.1,10s-11.1-6.4-11.1-10
			C140.1,94.9,145.6,93.8,151.2,93.8 M151.2,91.8c-11.4,0-13.1,2.8-13.1,4.5c0,2.2,1,5.5,3.6,8.2c1.7,1.7,4.7,3.7,9.5,3.7
			s7.8-2,9.5-3.7c2.7-2.7,3.6-6,3.6-8.2C164.3,94.7,162.6,91.8,151.2,91.8L151.2,91.8z"/>
	</g>
	<g>
		<path fill="#F26B6C" d="M150.8,101.6c-5.7,0-6.9,2.3-6.9,2.3c1.8,1.5,4.2,2.5,7.3,2.5c2.9,0,5.2-0.9,6.9-2.1
			C158.2,104.2,156.5,101.6,150.8,101.6z"/>
	</g>
</g>
<g id="Eye_1_">
	<circle fill="#0B2638" cx="174" cy="98.7" r="2.8"/>
	<path fill="none" stroke="#F7FBF5" stroke-linecap="round" stroke-miterlimit="10" d="M174.4,97.6c0.4,0,0.7,0.4,0.7,0.7"/>
</g>
<g id="Eye">
	<circle fill="#0B2638" cx="128.4" cy="98.7" r="2.8"/>
	<path fill="none" stroke="#F7FBF5" stroke-linecap="round" stroke-miterlimit="10" d="M128.8,97.6c0.4,0,0.7,0.4,0.7,0.7"/>
</g>
<g>
	<g>
		<path fill="#F7FBF5" d="M192.4,34.9c-2-2.1-3.3-3.6-4-4.8l-2.7,11.2c3.2-0.3,6.4-2.6,9.2-4C194,36.4,193,35.5,192.4,34.9z"/>
		<path fill="#F7FBF5" d="M209.9,39.1c-0.8,0.3-2.3,0.6-3.7,1c2,2.9,3.9,6.3,6.6,7.8l2.7-11.4C214.4,37.3,212.7,38.2,209.9,39.1z"/>
		<path fill="#F7FBF5" d="M204.1,41c-1.7,0.4-3.2,0.6-3.9,0.4c-0.7-0.2-2.1-1.2-3.5-2.4c-0.2,0.1-0.3,0.2-0.5,0.3
			c-3.6,1.8-6.5,2.7-9,4.1l23.3,5.6C208.2,46.5,205.9,43.8,204.1,41z"/>
		<path fill="#F7FBF5" d="M194,33.1c3.1,3.1,6,5.5,6.7,5.8c0.8,0,4.5-0.8,8.6-2.1c5.8-2,7.6-4.6,7.1-4.7l-26.7-6.4
			C189.3,25.5,189.7,28.7,194,33.1z"/>
	</g>
	<g>
		<path fill="#FF6B6B" d="M199.5,43.2C199.5,43.2,199.5,43.2,199.5,43.2C199.5,43.2,199.5,43.2,199.5,43.2L199.5,43.2z"/>
	</g>
</g>
<g>
	<g>
		<path fill="#F7FBF5" d="M74.7,62c-3.3-0.9-5.5-1.7-6.9-2.5l4,13c3-2.2,5-6.4,7-9.6C77.1,62.6,75.6,62.3,74.7,62z"/>
		<path fill="#F7FBF5" d="M95,55.8c-0.6,0.7-1.9,2-3.1,3.2c3.7,1.8,7.7,4.1,11.4,4l-4-13.1C98.5,51.4,97.2,53.3,95,55.8z"/>
		<path fill="#F7FBF5" d="M90.2,61.3c-1.5,1.4-2.9,2.5-3.7,2.8c-0.9,0.3-2.8,0-5-0.3c-0.1,0.2-0.2,0.4-0.3,0.6c-2.6,4-5,6.6-6.7,9.5
			l26.9-8.2C97.6,64.4,93.7,63,90.2,61.3z"/>
		<path fill="#F7FBF5" d="M75.3,59.2c4.9,1.3,9.3,2,10.3,1.9c0.9-0.5,4.1-3.4,7.5-7.3c4.7-5.4,4.9-9.2,4.4-9l-30.9,9.4
			C66,54.3,68.2,57.3,75.3,59.2z"/>
	</g>
	<g>
		<path fill="#FF6B6B" d="M86.8,66.2C86.8,66.2,86.8,66.2,86.8,66.2C86.8,66.2,86.8,66.2,86.8,66.2L86.8,66.2z"/>
	</g>
</g>
<g>
	<g>
		<path fill="#F7FBF5" d="M213.7,117.7c-1.9-2.1-3-3.6-3.7-4.9l-3.1,10.8c3.1-0.2,6.3-2.2,9.1-3.5
			C215.1,119.2,214.2,118.3,213.7,117.7z"/>
		<path fill="#F7FBF5" d="M230.5,122.5c-0.8,0.2-2.2,0.5-3.6,0.9c1.8,2.9,3.5,6.3,6.1,7.8l3.1-10.9
			C234.9,120.9,233.1,121.7,230.5,122.5z"/>
		<path fill="#F7FBF5" d="M224.7,124.1c-1.7,0.3-3.1,0.5-3.8,0.3c-0.7-0.2-2-1.2-3.3-2.4c-0.2,0.1-0.3,0.2-0.5,0.3
			c-3.6,1.6-6.4,2.3-8.9,3.6l22.3,6.3C228.5,129.5,226.4,126.8,224.7,124.1z"/>
		<path fill="#F7FBF5" d="M215.3,116c2.8,3.1,5.6,5.5,6.3,5.9c0.8,0.1,4.4-0.6,8.4-1.7c5.7-1.7,7.5-4.2,7.1-4.3l-25.6-7.3
			C211.1,108.5,211.3,111.5,215.3,116z"/>
	</g>
	<g>
		<path fill="#FF6B6B" d="M220.2,126C220.2,126,220.2,126,220.2,126C220.2,126,220.1,126,220.2,126L220.2,126z"/>
	</g>
</g>
</svg>
