<?xml version="1.0" encoding="utf-8"?>
<!-- Generator: Adobe Illustrator 20.1.0, SVG Export Plug-In . SVG Version: 6.00 Build 0)  -->
<svg version="1.2" baseProfile="tiny" id="Layer_1" xmlns="http://www.w3.org/2000/svg" xmlns:xlink="http://www.w3.org/1999/xlink"
	 x="0px" y="0px" width="300px" height="173.8px" viewBox="0 0 300 173.8" xml:space="preserve">
<g id="Moon">
	<path fill="#FEE56D" d="M260.1,30c-0.7-0.6-1.8,0-1.7,0.9c1.2,6.8,2.6,23.1-9.4,39.6c-11.9,16.4-27.8,20.1-34.6,21.1
		c-0.9,0.1-1.2,1.4-0.4,1.9c17.3,10.4,40,6.1,52.1-10.6C278.3,66.2,275.4,43.2,260.1,30z"/>
</g>
<g id="_x34__Point_Star_-_Yellow">
	<path fill="#FEE56D" d="M92.3,61.1l0.2,4.6c0,0.5-0.6,0.6-0.8,0.2l-2-4.2c-0.1-0.2-0.2-0.2-0.4-0.2l-4.6,0.2
		c-0.5,0-0.6-0.6-0.2-0.8l4.2-2c0.1-0.1,0.2-0.2,0.2-0.4l0-4.1c0-0.4,0.6-0.6,0.8-0.2l1.9,3.6c0.1,0.1,0.2,0.2,0.4,0.2l4.6-0.2
		c0.5,0,0.6,0.6,0.2,0.8l-4.2,2C92.4,60.8,92.3,60.9,92.3,61.1z"/>
</g>
<g id="_x34__Point_Star_White_1_">
	<path fill="#F7FBF5" d="M166.6,26.7l1.6,4c0.2,0.4-0.3,0.7-0.6,0.4l-3.1-3c-0.1-0.1-0.3-0.1-0.4-0.1l-4,1.6
		c-0.4,0.2-0.7-0.3-0.4-0.6l3-3.1c0.1-0.1,0.1-0.3,0.1-0.4l-1.3-3.5c-0.1-0.4,0.3-0.7,0.6-0.4l2.8,2.5c0.1,0.1,0.3,0.1,0.4,0.1
		l4-1.6c0.4-0.2,0.7,0.3,0.4,0.6l-3,3.1C166.6,26.4,166.5,26.5,166.6,26.7z"/>
</g>
<g id="_x34__Point_Star_White">
	<path fill="#F7FBF5" d="M231.2,140l-2.8,3.3c-0.3,0.3-0.8,0-0.7-0.4l1.3-4.2c0-0.2,0-0.3-0.1-0.4l-3.3-2.8c-0.3-0.3,0-0.8,0.4-0.7
		l4.2,1.3c0.1,0,0.3,0,0.4-0.1l2.6-2.9c0.3-0.3,0.8,0,0.7,0.4l-1,3.7c0,0.2,0,0.3,0.1,0.4l3.4,2.9c0.3,0.3,0,0.8-0.4,0.7l-4.2-1.3
		C231.5,139.8,231.3,139.9,231.2,140z"/>
</g>
<g id="_x34__Point_Star_Teal">
	<path fill="#5BC4BE" d="M77.8,118.4l-2.9,3.8c-0.3,0.4-0.9,0.1-0.8-0.4l1.2-4.6c0-0.2,0-0.3-0.2-0.5l-3.8-2.9
		c-0.4-0.3-0.1-0.9,0.4-0.8l4.6,1.2c0.2,0,0.3,0,0.4-0.1l2.7-3.2c0.3-0.4,0.9-0.1,0.8,0.4l-0.9,4.1c0,0.2,0,0.3,0.2,0.4l3.8,2.9
		c0.4,0.3,0.1,0.9-0.4,0.8l-4.6-1.2C78.1,118.2,78,118.2,77.8,118.4z"/>
</g>
<g id="_x34__Point_Star_Red">
	<path fill="#F26B6C" d="M203.3,55l-1.6,4c-0.2,0.4-0.8,0.3-0.8-0.1l-0.2-4.3c0-0.2-0.1-0.3-0.3-0.4l-4-1.6
		c-0.4-0.2-0.3-0.8,0.1-0.8l4.4-0.2c0.2,0,0.3-0.1,0.4-0.2l1.5-3.5c0.2-0.4,0.7-0.3,0.8,0.1l0.2,3.8c0,0.2,0.1,0.3,0.3,0.3l4.1,1.6
		c0.4,0.2,0.3,0.8-0.1,0.8l-4.3,0.2C203.5,54.7,203.4,54.8,203.3,55z"/>
</g>
<rect x="115.8" y="100.2" fill="#F7FBF5" width="70.5" height="46.5"/>
<circle fill="#F7FBF5" cx="151.1" cy="100.3" r="35.2"/>
<path fill="#F7FBF5" d="M115.8,146.7c0,0,0.3,7.1,7.2,7.1c6.9,0,6.9-7.1,13.8-7.1c6.9,0,6.9,7.1,13.8,7.1c6.9,0,6.9-7.1,13.8-7.1
	c6.9,0,6.9,7.1,13.8,7.1s7.9-7.1,7.9-7.1"/>
<g id="Mouth">
	<g>
		<path fill="#0B2638" d="M150.9,107.3c-4.4,0-7.2-1.9-8.8-3.4c-2.5-2.5-3.4-5.6-3.3-7.5c0-1.7,2.4-2.4,4.3-2.8
			c2.2-0.5,5-0.7,7.8-0.7c1.2,0,12.1,0.1,12.1,3.5c0,1.9-0.9,5-3.3,7.5C158.1,105.5,155.3,107.3,150.9,107.3z"/>
		<path fill="#0B2638" d="M150.9,93.8c5.6,0,11.1,1,11.1,2.5c0,3.6-3.2,10-11.1,10s-11.1-6.4-11.1-10
			C139.8,94.9,145.4,93.8,150.9,93.8 M150.9,91.8c-11.4,0-13.1,2.8-13.1,4.5c0,2.2,1,5.5,3.6,8.2c1.7,1.7,4.7,3.7,9.5,3.7
			s7.8-2,9.5-3.7c2.7-2.7,3.6-6,3.6-8.2C164,94.7,162.3,91.8,150.9,91.8L150.9,91.8z"/>
	</g>
	<g>
		<path fill="#F26B6C" d="M150.5,101.6c-5.7,0-6.9,2.3-6.9,2.3c1.8,1.5,4.2,2.5,7.3,2.5c2.9,0,5.2-0.9,6.9-2.1
			C158,104.2,156.2,101.6,150.5,101.6z"/>
	</g>
</g>
<g id="Eye_1_">
	<circle fill="#0B2638" cx="173.7" cy="98.7" r="2.8"/>
	<path fill="none" stroke="#F7FBF5" stroke-linecap="round" stroke-miterlimit="10" d="M174.2,97.6c0.4,0,0.7,0.4,0.7,0.7"/>
</g>
<g id="Eye">
	<circle fill="#0B2638" cx="128.1" cy="98.7" r="2.8"/>
	<path fill="none" stroke="#F7FBF5" stroke-linecap="round" stroke-miterlimit="10" d="M128.5,97.6c0.4,0,0.7,0.4,0.7,0.7"/>
</g>
</svg>
